<svg width="120" height="46" viewBox="0 0 120 46" fill="none" xmlns="http://www.w3.org/2000/svg">
<g filter="url(#filter0_d)">
<path d="M18.0156 20.7891C14.1562 19.6797 11.3438 18.3203 9.57812 16.7109C7.82812 15.0859 6.95312 13.0859 6.95312 10.7109C6.95312 8.02344 8.02344 5.80469 10.1641 4.05469C12.3203 2.28906 15.1172 1.40625 18.5547 1.40625C20.8984 1.40625 22.9844 1.85937 24.8125 2.76562C26.6562 3.67188 28.0781 4.92188 29.0781 6.51562C30.0938 8.10938 30.6016 9.85156 30.6016 11.7422H26.0781C26.0781 9.67969 25.4219 8.0625 24.1094 6.89062C22.7969 5.70312 20.9453 5.10938 18.5547 5.10938C16.3359 5.10938 14.6016 5.60156 13.3516 6.58594C12.1172 7.55469 11.5 8.90625 11.5 10.6406C11.5 12.0312 12.0859 13.2109 13.2578 14.1797C14.4453 15.1328 16.4531 16.0078 19.2812 16.8047C22.125 17.6016 24.3438 18.4844 25.9375 19.4531C27.5469 20.4062 28.7344 21.5234 29.5 22.8047C30.2812 24.0859 30.6719 25.5938 30.6719 27.3281C30.6719 30.0938 29.5938 32.3125 27.4375 33.9844C25.2812 35.6406 22.3984 36.4688 18.7891 36.4688C16.4453 36.4688 14.2578 36.0234 12.2266 35.1328C10.1953 34.2266 8.625 32.9922 7.51562 31.4297C6.42188 29.8672 5.875 28.0938 5.875 26.1094H10.3984C10.3984 28.1719 11.1562 29.8047 12.6719 31.0078C14.2031 32.1953 16.2422 32.7891 18.7891 32.7891C21.1641 32.7891 22.9844 32.3047 24.25 31.3359C25.5156 30.3672 26.1484 29.0469 26.1484 27.375C26.1484 25.7031 25.5625 24.4141 24.3906 23.5078C23.2188 22.5859 21.0938 21.6797 18.0156 20.7891ZM48.3672 36V1.875H58C60.9688 1.875 63.5938 2.53125 65.875 3.84375C68.1562 5.15625 69.9141 7.02344 71.1484 9.44531C72.3984 11.8672 73.0312 14.6484 73.0469 17.7891V19.9688C73.0469 23.1875 72.4219 26.0078 71.1719 28.4297C69.9375 30.8516 68.1641 32.7109 65.8516 34.0078C63.5547 35.3047 60.875 35.9688 57.8125 36H48.3672ZM52.8672 5.57812V32.3203H57.6016C61.0703 32.3203 63.7656 31.2422 65.6875 29.0859C67.625 26.9297 68.5938 23.8594 68.5938 19.875V17.8828C68.5938 14.0078 67.6797 11 65.8516 8.85938C64.0391 6.70312 61.4609 5.60937 58.1172 5.57812H52.8672ZM91.7734 36V1.875H102.93C106.633 1.875 109.414 2.64063 111.273 4.17188C113.148 5.70312 114.086 7.96875 114.086 10.9688C114.086 12.5625 113.633 13.9766 112.727 15.2109C111.82 16.4297 110.586 17.375 109.023 18.0469C110.867 18.5625 112.32 19.5469 113.383 21C114.461 22.4375 115 24.1562 115 26.1562C115 29.2188 114.008 31.625 112.023 33.375C110.039 35.125 107.234 36 103.609 36H91.7734ZM96.2734 20.0391V32.3203H103.703C105.797 32.3203 107.445 31.7812 108.648 30.7031C109.867 29.6094 110.477 28.1094 110.477 26.2031C110.477 22.0938 108.242 20.0391 103.773 20.0391H96.2734ZM96.2734 16.4297H103.07C105.039 16.4297 106.609 15.9375 107.781 14.9531C108.969 13.9688 109.562 12.6328 109.562 10.9453C109.562 9.07031 109.016 7.71094 107.922 6.86719C106.828 6.00781 105.164 5.57812 102.93 5.57812H96.2734V16.4297Z" fill="#F906D2"/>
<path d="M18.0156 20.7891L18.2936 19.8285L18.2919 19.828L18.0156 20.7891ZM9.57812 16.7109L8.89764 17.4438L8.90448 17.45L9.57812 16.7109ZM10.1641 4.05469L10.797 4.8289L10.7976 4.82839L10.1641 4.05469ZM24.8125 2.76562L24.3683 3.66158L24.3714 3.66307L24.8125 2.76562ZM29.0781 6.51562L28.231 7.04713L28.2348 7.05304L29.0781 6.51562ZM30.6016 11.7422V12.7422H31.6016V11.7422H30.6016ZM26.0781 11.7422H25.0781V12.7422H26.0781V11.7422ZM24.1094 6.89062L23.4384 7.63218L23.4434 7.63656L24.1094 6.89062ZM13.3516 6.58594L13.9689 7.3726L13.9703 7.37157L13.3516 6.58594ZM13.2578 14.1797L12.6207 14.9504L12.6262 14.955L12.6319 14.9596L13.2578 14.1797ZM19.2812 16.8047L19.01 17.7672L19.0114 17.7676L19.2812 16.8047ZM25.9375 19.4531L25.4181 20.3077L25.4279 20.3136L25.9375 19.4531ZM29.5 22.8047L28.6416 23.3177L28.6462 23.3253L29.5 22.8047ZM27.4375 33.9844L28.0467 34.7774L28.0503 34.7747L27.4375 33.9844ZM12.2266 35.1328L11.8191 36.0461L11.825 36.0486L12.2266 35.1328ZM7.51562 31.4297L6.69637 32.0032L6.70024 32.0086L7.51562 31.4297ZM5.875 26.1094V25.1094H4.875V26.1094H5.875ZM10.3984 26.1094H11.3984V25.1094H10.3984V26.1094ZM12.6719 31.0078L12.0501 31.7911L12.0591 31.798L12.6719 31.0078ZM24.3906 23.5078L23.7723 24.2938L23.7789 24.2989L24.3906 23.5078ZM18.2919 19.828C14.4924 18.7358 11.8514 17.43 10.2518 15.9719L8.90448 17.45C10.8361 19.2107 13.8201 20.6236 17.7394 21.7501L18.2919 19.828ZM10.2586 15.9781C8.71106 14.5412 7.95312 12.8061 7.95312 10.7109H5.95312C5.95312 13.3658 6.94519 15.6307 8.89767 17.4437L10.2586 15.9781ZM7.95312 10.7109C7.95312 8.33337 8.88094 6.3953 10.797 4.8289L9.53113 3.28048C7.16593 5.21407 5.95312 7.7135 5.95312 10.7109H7.95312ZM10.7976 4.82839C12.7364 3.24082 15.2926 2.40625 18.5547 2.40625V0.40625C14.9418 0.40625 11.9042 1.3373 9.53052 3.28098L10.7976 4.82839ZM18.5547 2.40625C20.7673 2.40625 22.6975 2.83328 24.3684 3.66158L25.2566 1.86967C23.2713 0.885468 21.0296 0.40625 18.5547 0.40625V2.40625ZM24.3714 3.66307C26.0643 4.4952 27.3388 5.62501 28.2311 7.04712L29.9252 5.98413C28.8175 4.21874 27.2482 2.84855 25.2536 1.86818L24.3714 3.66307ZM28.2348 7.05304C29.1481 8.48615 29.6016 10.0419 29.6016 11.7422H31.6016C31.6016 9.66125 31.0394 7.7326 29.9214 5.97821L28.2348 7.05304ZM30.6016 10.7422H26.0781V12.7422H30.6016V10.7422ZM27.0781 11.7422C27.0781 9.44869 26.3375 7.53943 24.7754 6.14469L23.4434 7.63656C24.5062 8.58557 25.0781 9.91068 25.0781 11.7422H27.0781ZM24.7803 6.14909C23.2277 4.74434 21.1052 4.10938 18.5547 4.10938V6.10938C20.7855 6.10938 22.3661 6.66191 23.4385 7.63216L24.7803 6.14909ZM18.5547 4.10938C16.1985 4.10938 14.2172 4.63141 12.7329 5.8003L13.9703 7.37157C14.9859 6.57172 16.4733 6.10938 18.5547 6.10938V4.10938ZM12.7342 5.79927C11.2306 6.9793 10.5 8.63616 10.5 10.6406H12.5C12.5 9.17634 13.0038 8.13007 13.9689 7.3726L12.7342 5.79927ZM10.5 10.6406C10.5 12.3597 11.2434 13.8119 12.6207 14.9504L13.895 13.4089C12.9285 12.61 12.5 11.7028 12.5 10.6406H10.5ZM12.6319 14.9596C13.9817 16.043 16.1504 16.9615 19.01 17.7672L19.5525 15.8422C16.7558 15.0542 14.9089 14.2226 13.8838 13.3998L12.6319 14.9596ZM19.0114 17.7676C21.8121 18.5524 23.9338 19.4055 25.4181 20.3076L26.4569 18.5986C24.7537 17.5633 22.4379 16.6507 19.5511 15.8418L19.0114 17.7676ZM25.4279 20.3136C26.9295 21.2029 27.9805 22.2113 28.6416 23.3176L30.3584 22.2917C29.4883 20.8356 28.1642 19.6096 26.4471 18.5927L25.4279 20.3136ZM28.6462 23.3253C29.3177 24.4266 29.6719 25.7483 29.6719 27.3281H31.6719C31.6719 25.4392 31.2448 23.7453 30.3538 22.2841L28.6462 23.3253ZM29.6719 27.3281C29.6719 29.7896 28.7328 31.7146 26.8247 33.1941L28.0503 34.7747C30.4547 32.9104 31.6719 30.3979 31.6719 27.3281H29.6719ZM26.8283 33.1913C24.8964 34.6753 22.2501 35.4688 18.7891 35.4688V37.4688C22.5468 37.4688 25.6661 36.606 28.0467 34.7774L26.8283 33.1913ZM18.7891 35.4688C16.5756 35.4688 14.5257 35.049 12.6281 34.217L11.825 36.0486C13.99 36.9979 16.3151 37.4688 18.7891 37.4688V35.4688ZM12.634 34.2196C10.7396 33.3744 9.32111 32.2453 8.33101 30.8508L6.70024 32.0086C7.92889 33.7391 9.65104 35.0787 11.8191 36.046L12.634 34.2196ZM8.33486 30.8562C7.36372 29.4689 6.875 27.8974 6.875 26.1094H4.875C4.875 28.2901 5.48003 30.2655 6.69639 32.0031L8.33486 30.8562ZM5.875 27.1094H10.3984V25.1094H5.875V27.1094ZM9.39844 26.1094C9.39844 28.4538 10.278 30.3843 12.0501 31.791L13.2936 30.2246C12.0345 29.2251 11.3984 27.8899 11.3984 26.1094H9.39844ZM12.0591 31.798C13.8139 33.1589 16.0902 33.7891 18.7891 33.7891V31.7891C16.3942 31.7891 14.5924 31.2317 13.2847 30.2176L12.0591 31.798ZM18.7891 33.7891C21.2809 33.7891 23.3506 33.2837 24.8578 32.13L23.6422 30.5419C22.6181 31.3257 21.0472 31.7891 18.7891 31.7891V33.7891ZM24.8578 32.13C26.3844 30.9615 27.1484 29.3404 27.1484 27.375H25.1484C25.1484 28.7533 24.6468 29.7729 23.6422 30.5419L24.8578 32.13ZM27.1484 27.375C27.1484 25.4389 26.4529 23.8385 25.0024 22.7168L23.7789 24.2989C24.6721 24.9896 25.1484 25.9673 25.1484 27.375H27.1484ZM25.0089 22.7219C23.674 21.6717 21.3859 20.7232 18.2936 19.8285L17.7377 21.7497C20.8016 22.6362 22.7635 23.5002 23.7723 24.2938L25.0089 22.7219ZM48.3672 36H47.3672V37H48.3672V36ZM48.3672 1.875V0.875H47.3672V1.875H48.3672ZM71.1484 9.44531L70.2575 9.89942L70.2598 9.90396L71.1484 9.44531ZM73.0469 17.7891L74.0469 17.7891L74.0469 17.7841L73.0469 17.7891ZM71.1719 28.4297L70.2832 27.971L70.2809 27.9756L71.1719 28.4297ZM65.8516 34.0078L65.3624 33.1356L65.3599 33.137L65.8516 34.0078ZM57.8125 36L57.8125 37.0001L57.8227 36.9999L57.8125 36ZM52.8672 5.57812V4.57812H51.8672V5.57812H52.8672ZM52.8672 32.3203H51.8672V33.3203H52.8672V32.3203ZM65.6875 29.0859L64.9437 28.4176L64.941 28.4206L65.6875 29.0859ZM65.8516 8.85938L65.0861 9.50285L65.0911 9.50879L65.8516 8.85938ZM58.1172 5.57812L58.1265 4.57812H58.1172V5.57812ZM49.3672 36V1.875H47.3672V36H49.3672ZM48.3672 2.875H58V0.875H48.3672V2.875ZM58 2.875C60.8166 2.875 63.2654 3.49604 65.3763 4.71053L66.3737 2.97697C63.9221 1.56646 61.1209 0.875 58 0.875V2.875ZM65.3763 4.71053C67.4838 5.92308 69.1081 7.64421 70.2575 9.89941L72.0394 8.99121C70.7201 6.40267 68.8287 4.38942 66.3737 2.97697L65.3763 4.71053ZM70.2598 9.90396C71.4271 12.1655 72.0319 14.7872 72.0469 17.794L74.0469 17.7841C74.0306 14.5097 73.3698 11.5688 72.0371 8.98667L70.2598 9.90396ZM72.0469 17.7891V19.9688H74.0469V17.7891H72.0469ZM72.0469 19.9688C72.0469 23.0567 71.4479 25.7145 70.2833 27.971L72.0605 28.8883C73.3958 26.3011 74.0469 23.3183 74.0469 19.9688H72.0469ZM70.2809 27.9756C69.1338 30.2262 67.4981 31.9379 65.3624 33.1356L66.3407 34.88C68.8301 33.484 70.7412 31.4769 72.0628 28.8838L70.2809 27.9756ZM65.3599 33.137C63.2322 34.3384 60.7234 34.9702 57.8023 35.0001L57.8227 36.9999C61.0266 36.9673 63.8772 36.271 66.3432 34.8786L65.3599 33.137ZM57.8125 35H48.3672V37H57.8125V35ZM51.8672 5.57812V32.3203H53.8672V5.57812H51.8672ZM52.8672 33.3203H57.6016V31.3203H52.8672V33.3203ZM57.6016 33.3203C61.293 33.3203 64.2845 32.163 66.434 29.7513L64.941 28.4206C63.2468 30.3214 60.8476 31.3203 57.6016 31.3203V33.3203ZM66.4313 29.7543C68.5868 27.3555 69.5938 24.0132 69.5938 19.875H67.5938C67.5938 23.7055 66.6632 26.5039 64.9437 28.4176L66.4313 29.7543ZM69.5938 19.875V17.8828H67.5938V19.875H69.5938ZM69.5938 17.8828C69.5938 13.8592 68.6443 10.5897 66.612 8.20996L65.0911 9.50879C66.715 11.4103 67.5938 14.1564 67.5938 17.8828H69.5938ZM66.617 8.21592C64.5811 5.79383 61.7021 4.61159 58.1265 4.57817L58.1078 6.57808C61.2198 6.60716 63.497 7.61242 65.0861 9.50283L66.617 8.21592ZM58.1172 4.57812H52.8672V6.57812H58.1172V4.57812ZM91.7734 36H90.7734V37H91.7734V36ZM91.7734 1.875V0.875H90.7734V1.875H91.7734ZM111.273 4.17188L110.638 4.94381L110.641 4.94641L111.273 4.17188ZM112.727 15.2109L113.529 15.8077L113.533 15.8027L112.727 15.2109ZM109.023 18.0469L108.628 17.1282L106.026 18.2471L108.754 19.0099L109.023 18.0469ZM113.383 21L112.576 21.5903L112.583 21.6L113.383 21ZM96.2734 20.0391V19.0391H95.2734V20.0391H96.2734ZM96.2734 32.3203H95.2734V33.3203H96.2734V32.3203ZM108.648 30.7031L109.316 31.4479L109.316 31.4474L108.648 30.7031ZM96.2734 16.4297H95.2734V17.4297H96.2734V16.4297ZM107.781 14.9531L107.143 14.1832L107.138 14.1874L107.781 14.9531ZM107.922 6.86719L107.304 7.65354L107.311 7.65897L107.922 6.86719ZM96.2734 5.57812V4.57812H95.2734V5.57812H96.2734ZM92.7734 36V1.875H90.7734V36H92.7734ZM91.7734 2.875H102.93V0.875H91.7734V2.875ZM102.93 2.875C106.52 2.875 109.031 3.62101 110.638 4.94381L111.909 3.39994C109.797 1.66024 106.746 0.875 102.93 0.875V2.875ZM110.641 4.94641C112.229 6.243 113.086 8.1903 113.086 10.9688H115.086C115.086 7.7472 114.068 5.16325 111.906 3.39734L110.641 4.94641ZM113.086 10.9688C113.086 12.3589 112.695 13.5637 111.92 14.6191L113.533 15.8027C114.57 14.3894 115.086 12.7661 115.086 10.9688H113.086ZM111.924 14.6142C111.135 15.6753 110.049 16.5174 108.628 17.1282L109.418 18.9655C111.123 18.2326 112.506 17.1841 113.529 15.8076L111.924 14.6142ZM108.754 19.0099C110.397 19.4692 111.654 20.3302 112.576 21.5902L114.19 20.4098C112.986 18.7636 111.338 17.6558 109.293 17.0838L108.754 19.0099ZM112.583 21.6C113.516 22.8449 114 24.3469 114 26.1562H116C116 23.9656 115.405 22.0301 114.183 20.4L112.583 21.6ZM114 26.1562C114 28.9817 113.096 31.0955 111.362 32.625L112.685 34.125C114.919 32.1545 116 29.4558 116 26.1562H114ZM111.362 32.625C109.618 34.1627 107.081 35 103.609 35V37C107.387 37 110.46 36.0873 112.685 34.125L111.362 32.625ZM103.609 35H91.7734V37H103.609V35ZM95.2734 20.0391V32.3203H97.2734V20.0391H95.2734ZM96.2734 33.3203H103.703V31.3203H96.2734V33.3203ZM103.703 33.3203C105.968 33.3203 107.88 32.7343 109.316 31.4479L107.981 29.9584C107.01 30.8282 105.625 31.3203 103.703 31.3203V33.3203ZM109.316 31.4474C110.782 30.1322 111.477 28.3421 111.477 26.2031H109.477C109.477 27.8766 108.953 29.0865 107.981 29.9589L109.316 31.4474ZM111.477 26.2031C111.477 23.9717 110.866 22.1207 109.478 20.844C108.105 19.5819 106.142 19.0391 103.773 19.0391V21.0391C105.873 21.0391 107.262 21.5236 108.124 22.3162C108.97 23.0941 109.477 24.3251 109.477 26.2031H111.477ZM103.773 19.0391H96.2734V21.0391H103.773V19.0391ZM96.2734 17.4297H103.07V15.4297H96.2734V17.4297ZM103.07 17.4297C105.206 17.4297 107.026 16.8935 108.424 15.7188L107.138 14.1874C106.193 14.9815 104.873 15.4297 103.07 15.4297V17.4297ZM108.419 15.723C109.86 14.5293 110.562 12.8987 110.562 10.9453H108.562C108.562 12.3669 108.078 13.4082 107.143 14.1832L108.419 15.723ZM110.562 10.9453C110.562 8.87908 109.953 7.17082 108.533 6.07541L107.311 7.65897C108.079 8.25105 108.562 9.26155 108.562 10.9453H110.562ZM108.54 6.08087C107.191 5.02127 105.262 4.57812 102.93 4.57812V6.57812C105.066 6.57812 106.465 6.99435 107.304 7.65351L108.54 6.08087ZM102.93 4.57812H96.2734V6.57812H102.93V4.57812ZM95.2734 5.57812V16.4297H97.2734V5.57812H95.2734Z" fill="#033AFF"/>
</g>
<defs>
<filter id="filter0_d" x="0.875" y="0.40625" width="119.125" height="45.0625" filterUnits="userSpaceOnUse" color-interpolation-filters="sRGB">
<feFlood flood-opacity="0" result="BackgroundImageFix"/>
<feColorMatrix in="SourceAlpha" type="matrix" values="0 0 0 0 0 0 0 0 0 0 0 0 0 0 0 0 0 0 127 0" result="hardAlpha"/>
<feOffset dy="4"/>
<feGaussianBlur stdDeviation="2"/>
<feComposite in2="hardAlpha" operator="out"/>
<feColorMatrix type="matrix" values="0 0 0 0 0 0 0 0 0 0 0 0 0 0 0 0 0 0 0.25 0"/>
<feBlend mode="normal" in2="BackgroundImageFix" result="effect1_dropShadow"/>
<feBlend mode="normal" in="SourceGraphic" in2="effect1_dropShadow" result="shape"/>
</filter>
</defs>
</svg>
