<svg width="352" height="36" viewBox="0 0 352 36" fill="none" xmlns="http://www.w3.org/2000/svg">
<g filter="url(#filter0_i)">
<path d="M27.1875 35H22.6641L5.48438 8.70312V35H0.960938V0.875H5.48438L22.7109 27.2891V0.875H27.1875V35ZM61.4297 19.0391C61.4297 22.3828 60.8672 25.3047 59.7422 27.8047C58.6172 30.2891 57.0234 32.1875 54.9609 33.5C52.8984 34.8125 50.4922 35.4688 47.7422 35.4688C45.0547 35.4688 42.6719 34.8125 40.5938 33.5C38.5156 32.1719 36.8984 30.2891 35.7422 27.8516C34.6016 25.3984 34.0156 22.5625 33.9844 19.3438V16.8828C33.9844 13.6016 34.5547 10.7031 35.6953 8.1875C36.8359 5.67188 38.4453 3.75 40.5234 2.42188C42.6172 1.07813 45.0078 0.40625 47.6953 0.40625C50.4297 0.40625 52.8359 1.07031 54.9141 2.39844C57.0078 3.71094 58.6172 5.625 59.7422 8.14062C60.8672 10.6406 61.4297 13.5547 61.4297 16.8828V19.0391ZM56.9531 16.8359C56.9531 12.7891 56.1406 9.6875 54.5156 7.53125C52.8906 5.35937 50.6172 4.27344 47.6953 4.27344C44.8516 4.27344 42.6094 5.35937 40.9688 7.53125C39.3438 9.6875 38.5078 12.6875 38.4609 16.5312V19.0391C38.4609 22.9609 39.2812 26.0469 40.9219 28.2969C42.5781 30.5312 44.8516 31.6484 47.7422 31.6484C50.6484 31.6484 52.8984 30.5938 54.4922 28.4844C56.0859 26.3594 56.9062 23.3203 56.9531 19.3672V16.8359ZM94.4062 35H89.8828L72.7031 8.70312V35H68.1797V0.875H72.7031L89.9297 27.2891V0.875H94.4062V35ZM133.148 26.0938H118.852L115.641 35H111L124.031 0.875H127.969L141.023 35H136.406L133.148 26.0938ZM120.211 22.3906H131.812L126 6.42969L120.211 22.3906ZM154.852 29.0234L164.602 0.875H169.523L156.867 35H152.883L140.25 0.875H145.148L154.852 29.0234ZM191.18 26.0938H176.883L173.672 35H169.031L182.062 0.875H186L199.055 35H194.438L191.18 26.0938ZM178.242 22.3906H189.844L184.031 6.42969L178.242 22.3906ZM208.477 35H203.977V0.875H208.477V35ZM221.25 31.3203H237.422V35H216.727V0.875H221.25V31.3203ZM261.867 26.0938H247.57L244.359 35H239.719L252.75 0.875H256.688L269.742 35H265.125L261.867 26.0938ZM248.93 22.3906H260.531L254.719 6.42969L248.93 22.3906ZM274.336 35V0.875H285.492C289.195 0.875 291.977 1.64063 293.836 3.17188C295.711 4.70312 296.648 6.96875 296.648 9.96875C296.648 11.5625 296.195 12.9766 295.289 14.2109C294.383 15.4297 293.148 16.375 291.586 17.0469C293.43 17.5625 294.883 18.5469 295.945 20C297.023 21.4375 297.562 23.1562 297.562 25.1562C297.562 28.2188 296.57 30.625 294.586 32.375C292.602 34.125 289.797 35 286.172 35H274.336ZM278.836 19.0391V31.3203H286.266C288.359 31.3203 290.008 30.7812 291.211 29.7031C292.43 28.6094 293.039 27.1094 293.039 25.2031C293.039 21.0938 290.805 19.0391 286.336 19.0391H278.836ZM278.836 15.4297H285.633C287.602 15.4297 289.172 14.9375 290.344 13.9531C291.531 12.9688 292.125 11.6328 292.125 9.94531C292.125 8.07031 291.578 6.71094 290.484 5.86719C289.391 5.00781 287.727 4.57812 285.492 4.57812H278.836V15.4297ZM308.766 31.3203H324.938V35H304.242V0.875H308.766V31.3203ZM349.359 19.2266H334.57V31.3203H351.75V35H330.07V0.875H351.516V4.57812H334.57V15.5469H349.359V19.2266Z" fill="#848488"/>
</g>
<defs>
<filter id="filter0_i" x="0.960938" y="0.40625" width="350.789" height="39.0625" filterUnits="userSpaceOnUse" color-interpolation-filters="sRGB">
<feFlood flood-opacity="0" result="BackgroundImageFix"/>
<feBlend mode="normal" in="SourceGraphic" in2="BackgroundImageFix" result="shape"/>
<feColorMatrix in="SourceAlpha" type="matrix" values="0 0 0 0 0 0 0 0 0 0 0 0 0 0 0 0 0 0 127 0" result="hardAlpha"/>
<feOffset dy="4"/>
<feGaussianBlur stdDeviation="2"/>
<feComposite in2="hardAlpha" operator="arithmetic" k2="-1" k3="1"/>
<feColorMatrix type="matrix" values="0 0 0 0 0 0 0 0 0 0 0 0 0 0 0 0 0 0 0.25 0"/>
<feBlend mode="normal" in2="shape" result="effect1_innerShadow"/>
</filter>
</defs>
</svg>
